<?xml version="1.0" encoding="utf-8"?><svg viewBox="0 0 48 48" xmlns="http://www.w3.org/2000/svg" xmlns:xlink="http://www.w3.org/1999/xlink"><style>:root>svg{display:none}:root>svg:target{display:block}</style><svg viewBox="0 0 24 24" id="arrow-ext" xmlns="http://www.w3.org/2000/svg"><path d="M22.47 4.03a1.5 1.5 0 00-1.5-1.5H7.47a1.5 1.5 0 000 3h12v12a1.5 1.5 0 103 0V4.03zM5.06 22.06L22.032 5.09 19.91 2.969 2.94 19.939l2.12 2.122z"/></svg><svg viewBox="0 0 24 24" id="check" xmlns="http://www.w3.org/2000/svg"><path d="M20.707 5.293a1 1 0 010 1.414l-11 11a1 1 0 01-1.414 0l-5-5a1 1 0 111.414-1.414L9 15.586 19.293 5.293a1 1 0 011.414 0z"/></svg><svg viewBox="0 0 48 48" id="close" xmlns="http://www.w3.org/2000/svg"><path d="M45.628 1L47 2.372 25.372 24 47 45.628 45.628 47 24 25.372 2.372 47 1 45.628 22.628 24 1 2.372 2.372 1 24 22.628z"/></svg><svg viewBox="0 0 24 24" id="close-or" xmlns="http://www.w3.org/2000/svg"><path d="M21.818 0l2.181 2.182-9.818 9.817L24 21.818l-2.182 2.181-9.819-9.818-9.817 9.818L0 21.818l9.818-9.819L.001 2.182 2.182 0l9.817 9.818z"/></svg><svg viewBox="0 0 48 48" id="telegram" xmlns="http://www.w3.org/2000/svg"><path fill-rule="evenodd" clip-rule="evenodd" d="M48 24c0 13.255-10.745 24-24 24S0 37.255 0 24 10.745 0 24 0s24 10.745 24 24zm-31.928-2.198c-2.405 1.05-4.875 2.128-7.134 3.372-1.18.864.388 1.474 1.86 2.047.233.092.464.182.682.272.18.055.365.114.551.173 1.636.521 3.46 1.103 5.048.229 2.608-1.499 5.07-3.231 7.53-4.962.806-.568 1.611-1.135 2.422-1.693l.128-.083c.69-.447 2.243-1.454 1.669-.067-1.358 1.486-2.814 2.8-4.276 4.123-.986.891-1.976 1.785-2.942 2.738-.841.683-1.715 2.058-.773 3.015 2.17 1.52 4.374 3.001 6.576 4.483.717.482 1.434.964 2.149 1.447 1.212.968 3.107.185 3.373-1.328l.356-2.087c.658-3.844 1.316-7.69 1.897-11.548.079-.605.168-1.21.258-1.815.217-1.467.435-2.936.503-4.41-.175-1.473-1.96-1.15-2.953-.818-5.106 1.942-10.16 4.029-15.194 6.152-.57.253-1.148.505-1.73.76z"/></svg></svg>