<svg xmlns="http://www.w3.org/2000/svg" width="100" height="100" viewBox="0 0 100 100">
  <g fill="none" fill-rule="evenodd">
    <path fill="#000" d="M0 0h100v100H0z"/>
    <path fill="#F99B09" d="M85.795 16.642c.277-1.007-.889-1.808-1.79-1.23L51.608 36.186c-.328.21-.524.563-.524.941V86.13c0 .94 1.121 1.47 1.895.897l5.502-4.078c.237-.175.396-.432.444-.716l5.518-32.87a1.13 1.13 0 0 1 .526-.772l14.137-8.72c.248-.153.428-.39.503-.664l6.186-22.565ZM77.87 45.475c.26-.99-.865-1.779-1.765-1.238l-9.46 5.683a1.131 1.131 0 0 0-.537.777L63.94 63.404c-.163.96.927 1.66 1.786 1.143l8.06-4.847c.257-.154.442-.399.516-.681l3.567-13.544ZM14.204 16.642c-.276-1.007.89-1.808 1.791-1.23l32.397 20.774c.328.21.525.563.525.941V86.13c0 .94-1.122 1.47-1.896.897l-5.502-4.078a1.125 1.125 0 0 1-.443-.716l-5.519-32.87a1.13 1.13 0 0 0-.526-.772l-14.137-8.72a1.135 1.135 0 0 1-.502-.664l-6.188-22.565Zm7.926 28.833c-.26-.99.866-1.779 1.765-1.238l9.46 5.683c.287.173.483.456.538.777l2.166 12.707c.164.96-.927 1.659-1.786 1.143L26.214 59.7a1.136 1.136 0 0 1-.517-.681L22.13 45.475Z"/>
  </g>
</svg>
