<svg width="90" height="90" viewBox="0 0 90 90" fill="none" xmlns="http://www.w3.org/2000/svg">
  <path d="M46.29 34.584c-.937.62-1.84 1.34-2.675 2.174-1.229 1.23-1.196 1.296-2.294 2.554m4.97-4.728c4.551-3.013 9.908-3.69 12.087-3.842.55-.039.99.401.952.952-.153 2.179-.83 7.535-3.843 12.087m-9.197-9.197 9.197 9.197m0 0c-.62.937-1.34 1.84-2.174 2.675-1.229 1.229-1.296 1.196-2.554 2.295M34.912 47.45c-.208.292-.386.545-.53.754a.982.982 0 0 0 .116 1.256l6.114 6.114a.982.982 0 0 0 1.255.116c.21-.145.463-.323.755-.53m-7.71-7.71-4.862-4.862a1 1 0 0 1 .26-1.601l7.812-3.906a1 1 0 0 1 1.154.187l2.044 2.044m-6.408 8.138a107.162 107.162 0 0 1 6.409-8.138m1.3 15.848 4.862 4.861a1 1 0 0 0 1.602-.26l3.906-7.812a1 1 0 0 0-.188-1.154L50.76 48.75m-8.137 6.409a107.165 107.165 0 0 0 8.137-6.41M33 57c.6-2.43 1.714-3.428 2.571-2.572C36.43 55.286 35.43 56.4 33 57Z" stroke="#F99B09" stroke-width="2"/>
  <circle cx="45" cy="45" r="36.286" stroke="url(#a)" stroke-width="2"/>
  <circle cx="45" cy="45" r="44" stroke="url(#b)" stroke-width="2"/>
  <defs>
    <linearGradient id="a" x1="28.688" y1="11.598" x2="79.179" y2="85.393" gradientUnits="userSpaceOnUse">
      <stop stop-color="#F99B09"/>
      <stop offset="1" stop-color="#fff"/>
    </linearGradient>
    <linearGradient id="b" x1="34.914" y1="-16.293" x2="100.086" y2="166.034" gradientUnits="userSpaceOnUse">
      <stop stop-color="#F99B09"/>
      <stop offset="1" stop-color="#fff"/>
    </linearGradient>
  </defs>
</svg>
