<svg width="90" height="90" viewBox="0 0 90 90" fill="none" xmlns="http://www.w3.org/2000/svg">
  <circle cx="45" cy="45" r="36.286" stroke="url(#a)" stroke-width="2"/>
  <circle cx="45" cy="45" r="44" stroke="url(#b)" stroke-width="2"/>
  <path d="M38.384 43.769c-.074-.46-.34-.869-.733-1.123l-7.603-4.904-3.106-11.846 16.749 11.232v27.07l-2.316-1.795-2.991-18.634Zm-8.452-6.102Zm14.337 26.978Zm2.605-27.517 16.749-11.232-3.106 11.846-7.603 4.904a1.646 1.646 0 0 0-.733 1.123l-2.99 18.634-2.317 1.795v-27.07Zm13.608.746Zm-5.767 6.92-.637-.105.637.104Zm4.6-2.473-1.697 6.74-3.61 2.269 1.031-6.323 4.275-2.686Zm-5.978 9.43Zm-22.087-9.43 4.276 2.686 1.03 6.323-3.608-2.27-1.698-6.74Zm1.732 6.876Z" stroke="#F99B09" stroke-width="2"/>
  <defs>
    <linearGradient id="a" x1="28.688" y1="11.598" x2="79.179" y2="85.393" gradientUnits="userSpaceOnUse">
      <stop stop-color="#F99B09"/>
      <stop offset="1" stop-color="#fff"/>
    </linearGradient>
    <linearGradient id="b" x1="34.914" y1="-16.293" x2="100.086" y2="166.034" gradientUnits="userSpaceOnUse">
      <stop stop-color="#F99B09"/>
      <stop offset="1" stop-color="#fff"/>
    </linearGradient>
  </defs>
</svg>
