<svg xmlns="http://www.w3.org/2000/svg" width="33" height="34" viewBox="0 0 33 34">
  <path fill="#F99B09" fill-rule="evenodd" d="M32.972.676c.127-.463-.41-.832-.824-.566L17.246 9.666a.516.516 0 0 0-.241.434V32.64c0 .432.516.676.872.412l2.53-1.875a.518.518 0 0 0 .204-.33l2.539-15.12a.52.52 0 0 1 .242-.355l6.503-4.011a.522.522 0 0 0 .23-.306L32.973.676ZM29.326 13.94c.12-.454-.398-.818-.812-.57l-4.351 2.615a.52.52 0 0 0-.247.358l-.997 5.845c-.075.442.426.763.821.525l3.708-2.229a.523.523 0 0 0 .238-.313l1.64-6.23ZM.04.676C-.087.213.45-.155.864.11l14.903 9.556c.15.097.24.26.24.434V32.64c0 .432-.515.676-.871.412l-2.531-1.875a.517.517 0 0 1-.204-.33l-2.539-15.12a.52.52 0 0 0-.242-.355l-6.503-4.011a.522.522 0 0 1-.23-.306L.04.676ZM3.686 13.94c-.12-.454.398-.818.812-.57l4.351 2.615a.52.52 0 0 1 .248.358l.996 5.845c.075.442-.426.763-.821.525l-3.708-2.229a.523.523 0 0 1-.237-.313l-1.641-6.23Z"/>
</svg>
